<?xml version="1.0" encoding="utf-8"?>
<!-- Generator: Adobe Illustrator 22.1.0, SVG Export Plug-In . SVG Version: 6.00 Build 0)  -->
<svg version="1.1" id="Layer_1" xmlns="http://www.w3.org/2000/svg" xmlns:xlink="http://www.w3.org/1999/xlink" x="0px" y="0px"
	 viewBox="0 0 200 154" style="enable-background:new 0 0 200 154;" xml:space="preserve">
<style type="text/css">
	.st0{fill:#FFFFFF;}
</style>
<g>
	<path class="st0" d="M139.7,57.3c0-30.7-31.1-55.7-69.4-55.7C32.1,1.7,1,26.6,1,57.3c0,19,12.1,36.6,31.8,46.8
		c-2.7,6.9-8.9,11.3-9,11.3l-10.7,7.1l12.6,2.3c1.6,0.3,3.3,0.4,4.9,0.4c11.3,0,20.9-6.8,27.4-13.2c4.1,0.6,8.2,0.9,12.2,0.9
		C108.6,113,139.7,88,139.7,57.3z"/>
	<path class="st0" d="M199.6,88.1c0-26.6-26.2-48.3-59.4-50.2c2.6,6.1,4,12.6,4,19.4c0,29.8-26.7,54.5-61.6,59.3
		c11.6,13.3,30.8,22,52.8,22c3.3,0,6.5-0.2,9.7-0.6c5.7,6.3,17.2,16.7,30.5,14.3c0,0-10.6-7.1-12.2-18.7
		C184.8,125.4,199.6,108.1,199.6,88.1z"/>
</g>
</svg>
